<?xml version="1.0" standalone="no"?>
<!DOCTYPE svg PUBLIC "-//W3C//DTD SVG 1.0//EN" "http://www.w3.org/TR/2001/REC-SVG-20010904/DTD/svg10.dtd">
<!--suppress ALL -->
<svg xmlns="http://www.w3.org/2000/svg" xmlns:xlink="http://www.w3.org/1999/xlink" id="body_1" width="48" height="48">

<g transform="matrix(0.03294441 0 0 0.03294441 0 0)">
    <path transform="matrix(0.9999931 0 0 0.9999931 0 0)"  d="M1437.168 728.505C 1437.168 532.8131 1367.98 365.7797 1229.605 227.4046C 1091.23 89.02952 924.197 19.84198 728.505 19.84198C 532.8131 19.84198 365.7797 89.02952 227.4046 227.4046C 89.02952 365.7797 19.84198 532.8131 19.84198 728.505C 19.84198 924.197 89.02952 1091.23 227.4046 1229.605C 365.7797 1367.98 532.8131 1437.168 728.505 1437.168C 924.197 1437.168 1091.23 1367.98 1229.605 1229.605C 1367.98 1091.23 1437.168 924.197 1437.168 728.505" stroke="none" fill="#008F54" fill-rule="nonzero" />
    <path transform="matrix(0.9999931 0 0 0.9999931 0 0)"  d="M1408.82 728.505C 1408.82 540.6412 1342.4 380.2894 1209.56 247.4497C 1076.721 114.6099 916.3688 48.19001 728.505 48.19C 540.6412 48.19001 380.2894 114.6099 247.4497 247.4497C 114.6099 380.2894 48.19001 540.6412 48.19 728.505C 48.19001 916.3688 114.6099 1076.721 247.4497 1209.56C 380.2894 1342.4 540.6412 1408.82 728.505 1408.82C 916.3688 1408.82 1076.721 1342.4 1209.56 1209.56C 1342.4 1076.721 1408.82 916.3688 1408.82 728.505" stroke="none" fill="#007E46" fill-rule="nonzero" />
    <path transform="matrix(0.9999931 0 0 0.9999931 0 0)"  d="M1366.3 728.505C 1366.3 552.3828 1304.031 402.0531 1179.494 277.5159C 1054.957 152.9786 904.6273 90.71002 728.505 90.71002C 552.3828 90.71002 402.0531 152.9786 277.5159 277.5159C 152.9786 402.0531 90.71002 552.3828 90.71002 728.505C 90.71002 904.6273 152.9786 1054.957 277.5159 1179.494C 402.0531 1304.031 552.3828 1366.3 728.505 1366.3C 904.6273 1366.3 1054.957 1304.031 1179.494 1179.494C 1304.031 1054.957 1366.3 904.6273 1366.3 728.505" stroke="none" fill="#007642" fill-rule="nonzero" />
    <path transform="matrix(0.9999931 0 0 0.9999931 0 0)"  d="M1337.953 728.505C 1337.953 560.2106 1278.452 416.5623 1159.45 297.5602C 1040.448 178.5581 896.7995 119.057 728.505 119.057C 560.2106 119.057 416.5623 178.5581 297.5602 297.5602C 178.5581 416.5623 119.057 560.2106 119.057 728.505C 119.057 896.7995 178.5581 1040.448 297.5602 1159.45C 416.5623 1278.452 560.2106 1337.953 728.505 1337.953C 896.7995 1337.953 1040.448 1278.452 1159.45 1159.45C 1278.452 1040.448 1337.953 896.7995 1337.953 728.505" stroke="#000000" stroke-width="1" fill="#FFFFFF" fill-rule="nonzero" />
    <path transform="matrix(0.9999931 0 0 0.9999931 0 0)"  d="M256.628 1052.038L540.593 1169.274L976.791 1017.048L1261.019 590.1639C 1261.019 590.1639 904.5901 832.9449 777.27 892.8199" stroke="none" fill="#064631" fill-rule="nonzero" />
    <path transform="matrix(0.9999931 0 0 0.9999931 0 0)"  d="M537.139 299.92L354.228 946.069L717.239 882.6689C 759.613 851.046 656.805 409.613 537.139 299.92z" stroke="none" fill="#064631" fill-rule="nonzero" />
    <path transform="matrix(0.9999931 0 0 0.9999931 0 0)"  d="M535.818 249.086C 535.818 249.086 738.871 456.888 754.762 858.939C 754.762 858.939 878.068 767.975 1044.039 625.675C 1044.04 625.676 873.063 346.211 535.818 249.086z" stroke="none" fill="#0B5A40" fill-rule="nonzero" />
</g>
</svg>
